<svg width="127" height="38" viewBox="0 0 127 38" fill="none" xmlns="http://www.w3.org/2000/svg">
<g clip-path="url(#clip0_3_376)">
<g clip-path="url(#clip1_3_376)">
<g clip-path="url(#clip2_3_376)">
<path d="M17.1595 23.9367C16.5124 24.1084 16.2019 24.9063 16.6298 25.4211L25.6076 36.2225C26.0664 36.7745 25.6739 37.6111 24.9561 37.6111H18.8177C18.566 37.6111 18.3274 37.4991 18.1664 37.3055L8.79662 26.0325C8.29004 25.4229 7.29865 25.7812 7.29865 26.5737V36.7643C7.29865 37.2319 6.91953 37.6111 6.45188 37.6111H0.846769C0.379112 37.6111 0 37.2319 0 36.7643V0.846763C0 0.379111 0.379112 0 0.846769 0H13.9022C17.3885 0 20.2438 0.980226 22.591 3.2548C24.9383 5.52938 26.0666 8.53137 26.0666 11.9343C26.0666 15.0148 25.202 17.5801 23.2862 19.8905C21.6862 21.8201 19.6404 23.2788 17.1595 23.9367ZM12.8595 6.87125H8.14542C7.67776 6.87125 7.29865 7.25036 7.29865 7.71802V16.5122C7.29865 16.9799 7.67776 17.359 8.14542 17.359H12.8595C14.5164 17.359 15.6126 16.8795 16.6826 15.9124C17.7527 14.9453 18.4204 13.6178 18.4204 11.9343C18.4204 10.3224 17.7354 8.8875 16.6826 7.95618C15.6298 7.02487 14.5509 6.87125 12.8595 6.87125Z" fill="#003E39"/>
<path d="M39.1691 37.6112C35.5474 37.6112 32.7685 36.4756 30.8512 34.3563C28.9338 32.2372 27.958 29.6849 27.958 26.4002V13.4912C27.958 13.0309 28.3312 12.6577 28.7916 12.6577H33.6341C34.0944 12.6577 34.4676 13.0309 34.4676 13.4912V26.4002C34.4676 27.7777 35.1153 29.0983 35.9142 30.0167C36.7131 30.9349 37.7488 31.4632 39.1691 31.4632C40.5893 31.4632 41.6072 30.9349 42.4238 30.0167C43.2404 29.0983 43.8704 27.7777 43.8704 26.4002V13.4912C43.8704 13.0309 44.2436 12.6577 44.7039 12.6577H49.5465C50.0068 12.6577 50.38 13.0309 50.38 13.4912V26.4002C50.38 29.6849 49.4042 32.2372 47.4868 34.3563C45.5696 36.4756 42.8261 37.6112 39.1691 37.6112Z" fill="#003E39"/>
<path d="M63.4819 37.6112C59.8604 37.6112 57.0814 36.4756 55.1642 34.3563C53.2468 32.2372 52.271 29.6849 52.271 26.4002V13.4912C52.271 13.0309 52.6442 12.6577 53.1045 12.6577H57.947C58.4074 12.6577 58.7806 13.0309 58.7806 13.4912V26.4002C58.7806 27.7777 59.4283 29.0983 60.2272 30.0167C61.026 30.9349 62.0617 31.4632 63.4819 31.4632C64.9022 31.4632 65.9201 30.9349 66.7368 30.0167C67.5534 29.0983 68.1834 27.7777 68.1834 26.4002V13.4912C68.1834 13.0309 68.5565 12.6577 69.0169 12.6577H73.8594C74.3198 12.6577 74.693 13.0309 74.693 13.4912V26.4002C74.693 29.6849 73.7171 32.2372 71.7998 34.3563C69.8824 36.4756 67.1361 37.6112 63.4819 37.6112Z" fill="#003E39"/>
<path d="M86.7106 36.7776C86.7106 37.2378 86.3374 37.6111 85.877 37.6111H85.264C79.366 37.6111 76.5845 34.7054 76.5845 28.5699V0.83354C76.5845 0.373188 76.9577 0 77.4181 0H82.2606C82.7209 0 83.0941 0.373189 83.0941 0.833539V28.2083C83.0941 30.004 84.0901 31.1449 85.8795 31.4058C86.335 31.4723 86.7106 31.8363 86.7106 32.2966V36.7776Z" fill="#003E39"/>
</g>
</g>
</g>
<defs>
<clipPath id="clip0_3_376">
<rect width="87" height="38" fill="white"/>
</clipPath>
<clipPath id="clip1_3_376">
<rect width="87" height="38" fill="white"/>
</clipPath>
<clipPath id="clip2_3_376">
<rect width="87" height="38" fill="white"/>
</clipPath>
</defs>
</svg>
