<svg width="80" height="36" viewBox="0 0 80 36" fill="none" xmlns="http://www.w3.org/2000/svg">
<g clip-path="url(#clip0_3_200)">
<g clip-path="url(#clip1_3_200)">
<path d="M15.631 22.0593C15.0421 22.2155 14.7597 22.9415 15.149 23.41L23.3184 33.2389C23.7359 33.7411 23.3787 34.5023 22.7256 34.5023H17.1399C16.9109 34.5023 16.6937 34.4005 16.5473 34.2243L8.02115 23.9664C7.56018 23.4117 6.65806 23.7377 6.65806 24.4588V33.7319C6.65806 34.1573 6.31308 34.5023 5.88753 34.5023H0.787125C0.361577 34.5023 0.0166016 34.1573 0.0166016 33.7319V1.04841C0.0166016 0.622868 0.361577 0.277893 0.787125 0.277893H12.667C15.8394 0.277893 18.4376 1.16986 20.5735 3.23963C22.7094 5.30939 23.7361 8.04108 23.7361 11.1376C23.7361 13.9407 22.9493 16.275 21.206 18.3774C19.7501 20.1332 17.8885 21.4606 15.631 22.0593ZM11.7182 6.53043H7.42859C7.00304 6.53043 6.65806 6.87541 6.65806 7.30096V15.3033C6.65806 15.7288 7.00304 16.0738 7.42859 16.0738H11.7182C13.2259 16.0738 14.2234 15.6376 15.1971 14.7575C16.1708 13.8775 16.7784 12.6695 16.7784 11.1376C16.7784 9.67081 16.155 8.36514 15.1971 7.51768C14.2391 6.67022 13.2573 6.53043 11.7182 6.53043Z" fill="#013E39"/>
<path d="M35.5577 34.5026C32.2621 34.5026 29.7334 33.4693 27.9888 31.5409C26.244 29.6125 25.3561 27.29 25.3561 24.3012V12.5545C25.3561 12.1356 25.6957 11.796 26.1146 11.796H30.5211C30.9399 11.796 31.2795 12.1356 31.2795 12.5545V24.3012C31.2795 25.5546 31.8689 26.7562 32.5959 27.5919C33.3228 28.4275 34.2653 28.9083 35.5577 28.9083C36.85 28.9083 37.7763 28.4275 38.5193 27.5919C39.2624 26.7562 39.8357 25.5546 39.8357 24.3012V12.5545C39.8357 12.1356 40.1753 11.796 40.5941 11.796H45.0007C45.4195 11.796 45.7591 12.1356 45.7591 12.5545V24.3012C45.7591 27.29 44.8712 29.6125 43.1265 31.5409C41.3818 33.4693 38.8854 34.5026 35.5577 34.5026Z" fill="#013E39"/>
<path d="M58.2643 34.5026C54.9688 34.5026 52.4401 33.4693 50.6955 31.5409C48.9507 29.6125 48.0628 27.29 48.0628 24.3012V12.5545C48.0628 12.1356 48.4024 11.796 48.8212 11.796H53.2277C53.6467 11.796 53.9863 12.1356 53.9863 12.5545V24.3012C53.9863 25.5546 54.5756 26.7562 55.3026 27.5919C56.0295 28.4275 56.9719 28.9083 58.2643 28.9083C59.5566 28.9083 60.4829 28.4275 61.2261 27.5919C61.9691 26.7562 62.5424 25.5546 62.5424 24.3012V12.5545C62.5424 12.1356 62.8819 11.796 63.3008 11.796H67.7073C68.1263 11.796 68.4659 12.1356 68.4659 12.5545V24.3012C68.4659 27.29 67.5778 29.6125 65.8332 31.5409C64.0885 33.4693 61.5894 34.5026 58.2643 34.5026Z" fill="#013E39"/>
<path d="M79.9838 33.7439C79.9838 34.1627 79.6442 34.5023 79.2252 34.5023H78.6674C73.3005 34.5023 70.7694 31.8583 70.7694 26.2753V1.03638C70.7694 0.617479 71.109 0.277893 71.528 0.277893H75.9344C76.3533 0.277893 76.6929 0.617479 76.6929 1.03638V25.9462C76.6929 27.5802 77.5992 28.6184 79.2275 28.8559C79.642 28.9163 79.9838 29.2476 79.9838 29.6664V33.7439Z" fill="#013E39"/>
</g>
</g>
<defs>
<clipPath id="clip0_3_200">
<rect width="80" height="35.31" fill="white"/>
</clipPath>
<clipPath id="clip1_3_200">
<rect width="79.9668" height="35.31" fill="white" transform="translate(0.0166016)"/>
</clipPath>
</defs>
</svg>
