<svg width="18" height="18" viewBox="0 0 18 18" fill="none" xmlns="http://www.w3.org/2000/svg">
<g clip-path="url(#clip0_3_361)">
<path d="M8.99985 0.716797C4.39733 0.716797 0.666504 4.44764 0.666504 9.0501C0.666504 13.2093 3.714 16.6568 7.69815 17.2826V11.4585H5.5815V9.0501H7.69815V7.2143C7.69815 5.12597 8.94145 3.97264 10.8457 3.97264C11.7574 3.97264 12.7107 4.13514 12.7107 4.13514V6.18514H11.6607C10.6249 6.18514 10.3024 6.82764 10.3024 7.4868V9.0501H12.6132L12.244 11.4585H10.3024V17.2826C14.2857 16.6576 17.3332 13.2085 17.3332 9.0501C17.3332 4.44764 13.6024 0.716797 8.99985 0.716797Z" fill="#003E39"/>
</g>
<defs>
<clipPath id="clip0_3_361">
<rect width="18" height="18" fill="white"/>
</clipPath>
</defs>
</svg>
