<svg width="17" height="17" viewBox="0 0 17 17" fill="none" xmlns="http://www.w3.org/2000/svg">
<path d="M8.50001 0C10.8094 0 11.0976 0.0085068 12.0037 0.0509999C12.909 0.0935033 13.5252 0.235456 14.0675 0.446251C14.6285 0.662155 15.1011 0.954558 15.5737 1.42631C16.0059 1.85122 16.3404 2.36521 16.5537 2.9325C16.7637 3.47395 16.9065 4.09105 16.949 4.9963C16.989 5.9024 17 6.19055 17 8.49996C17 10.8094 16.9915 11.0975 16.949 12.0036C16.9065 12.9089 16.7637 13.5251 16.5537 14.0675C16.341 14.6351 16.0065 15.1492 15.5737 15.5736C15.1487 16.0057 14.6347 16.3401 14.0675 16.5537C13.5261 16.7636 12.909 16.9064 12.0037 16.949C11.0976 16.9888 10.8094 17 8.50001 17C6.19055 17 5.90239 16.9914 4.99629 16.949C4.09104 16.9064 3.47479 16.7636 2.9325 16.5537C2.36497 16.3407 1.85089 16.0063 1.4263 15.5736C0.993991 15.1488 0.659543 14.6348 0.446249 14.0675C0.235446 13.526 0.0934931 12.9089 0.0509999 12.0036C0.0110466 11.0975 0 10.8094 0 8.49996C0 6.19055 0.0084966 5.9024 0.0509999 4.9963C0.0934931 4.0902 0.235446 3.4748 0.446249 2.9325C0.658952 2.36486 0.993481 1.85073 1.4263 1.42631C1.85101 0.993848 2.36506 0.65938 2.9325 0.446251C3.47479 0.235456 4.0902 0.0935033 4.99629 0.0509999C5.90239 0.0110568 6.19055 0 8.50001 0ZM8.50001 4.25C7.37281 4.25 6.29182 4.69777 5.49479 5.4948C4.69776 6.29182 4.25 7.37286 4.25 8.49996C4.25 9.62711 4.69776 10.7081 5.49479 11.5051C6.29182 12.3022 7.37281 12.7499 8.50001 12.7499C9.62721 12.7499 10.7082 12.3022 11.5053 11.5051C12.3023 10.7081 12.75 9.62711 12.75 8.49996C12.75 7.37286 12.3023 6.29182 11.5053 5.4948C10.7082 4.69777 9.62721 4.25 8.50001 4.25ZM14.025 4.0375C14.025 3.75571 13.9131 3.48546 13.7139 3.2862C13.5146 3.08695 13.2443 2.975 12.9625 2.975C12.6807 2.975 12.4105 3.08695 12.2112 3.2862C12.012 3.48546 11.9 3.75571 11.9 4.0375C11.9 4.31929 12.012 4.58955 12.2112 4.7888C12.4105 4.98806 12.6807 5.1 12.9625 5.1C13.2443 5.1 13.5146 4.98806 13.7139 4.7888C13.9131 4.58955 14.025 4.31929 14.025 4.0375ZM8.50001 5.95C9.17627 5.95 9.82492 6.21866 10.3031 6.69691C10.7814 7.17508 11.05 7.8237 11.05 8.49996C11.05 9.17632 10.7814 9.82489 10.3031 10.3031C9.82492 10.7812 9.17627 11.0499 8.50001 11.0499C7.82365 11.0499 7.17513 10.7812 6.69686 10.3031C6.21865 9.82489 5.94999 9.17632 5.94999 8.49996C5.94999 7.8237 6.21865 7.17508 6.69686 6.69691C7.17513 6.21866 7.82365 5.95 8.50001 5.95Z" fill="#003E39"/>
</svg>
